<?xml version="1.0" encoding="utf-8"?>
<!-- Generator: Adobe Illustrator 24.1.2, SVG Export Plug-In . SVG Version: 6.00 Build 0)  -->
<svg version="1.1" xmlns="http://www.w3.org/2000/svg" xmlns:xlink="http://www.w3.org/1999/xlink" x="0px" y="0px"
	 viewBox="0 0 3143 3143" style="enable-background:new 0 0 3143 3143;" xml:space="preserve">
<g id="Capa_1">
	<g>
		<path d="M1676.6,790.9l-8.2-30.4c0.1,0,0.2,0,0.3,0l0.7-0.1c0.1,0,0.2,0,0.3,0l2.5,10C1674.1,777.1,1675.4,784,1676.6,790.9z"/>
		<g>
			<path class="st0" d="M1365.3,2821.2l-0.4-0.1c-69.8-28.6-136.5-64.1-198.7-105.9c-15.5-10.6-30.8-21.3-45.8-32.6
				c-7.5-5.6-14.9-11.4-22.2-17.1l-11-8.8l-3.2-2.5l-4.2-3.2c-2.8-2.1-5.6-4.3-8.5-6.4c-46-33.1-100.5-53.9-156.7-60.5
				c-14.1-1.5-28.2-2.5-42.4-2.2c-7.1-0.1-14.2,0.4-21.3,0.8l-15.3,1l-60.7,4l-121.5,8l-198.3,13.1l73.7-146.8l109.3-217.7
				l27.3-54.4l3.4-6.8l1.7-3.4l0.9-1.7l1.1-2.3l4.8-10.4c1.6-3.5,3-7,4.5-10.5c5.8-14.1,10.8-28.6,14.8-43.3
				c8-29.5,12.5-59.9,13.2-90.5c0.4-15.3-0.2-30.6-1.7-45.8c-0.3-3.8-0.8-7.6-1.3-11.4l-1.3-9.9l-1.8-13.5
				c-8.9-71.9-10.4-144.5-4.6-216.4c1.4-18,3.4-35.9,5.7-53.8l1.8-13.4c0.7-4.4,1.5-8.8,2.2-13.3l4.5-26.7
				c1.3-8.9,3.5-17.7,5.3-26.5l5.7-26.4c2.1-8.7,4.5-17.4,6.7-26.1l3.4-13c1.2-4.3,2.2-8.7,3.6-12.9c9.6-32.9,20.8-65.2,33.6-96.8
				l0,0c13.9-34.7,29.6-68.6,47.1-101.6c2.1-4.3,4.3-8.4,6.7-12.5l0,0c0,0,0,0,0,0l-75.8-28.7c-29.6-11.4-59.2-22.7-88.7-34.3
				l-88.5-34.8l-16.8-6.7c0,0,0,0,0,0l-27.4-10.9l-22.1-8.9c-1.8-0.7-3.8-1.5-5.4-2.2l-4.5-2l-8.9-4.1
				c-23.5-11.1-45.7-24.1-65.8-39.7c-19.9-15.6-38-33.1-53.8-52.2c-31.8-38.2-54.1-83.1-66.7-130c-6.4-23.4-10.2-47.4-11.8-71.3
				c-1.3-23.9-0.3-47.8,3.2-71.1c6.8-46.6,22.9-91.1,48.1-130.2l4.6-7.4c1.5-2.5,3.4-4.7,5.1-7.1l5.1-7.1l2.5-3.6
				c0.9-1.2,1.9-2.3,2.8-3.4c3.8-4.5,7.5-9,11.2-13.6c4.1-4.3,8.1-8.6,12.1-13c16.5-17,34.5-32.4,53.8-45.6
				c19.3-13.1,39.9-24.1,61.5-32.7c13.8-5.6,28.1-10.4,42.6-14.1c8.1-2.1,16.4-3.8,24.8-5.2c4.1-0.7,8.1-1.3,12.2-1.8
				c19.3-2.5,39-3.6,58.8-2.7c15.7,0.6,31.5,2.3,47.1,5c8.1,1.4,16.2,3.1,24.2,5.1c17.7,4.4,35,10.3,51.8,17.5
				c5.5,2.4,11,5,16.4,7.7c21.9,10.7,42.7,23.8,62,39.1c19.5,15.1,36.9,32.9,52.5,52.3c15.6,19.5,29.3,40.8,40.7,63.8
				c1,2,1.9,4.1,2.8,6.1c1.7,3.8,3.4,7.7,5.1,11.5l2,4.4l0.5,1.1l0.5,1.4l1.1,2.8l4.4,11.1l17.4,44.3l34.7,88.5
				c11.6,29.5,23.2,59,34.6,88.6c4.3,11,8.5,22,12.7,33c37.5-31.7,77.4-60.7,119.4-86.5c-7.9-27.7-15.6-55.3-23.2-83.1l-25.4-91.7
				l-12.7-45.8l-3.2-11.5l-0.8-2.9l-0.4-1.4l-0.5-1.7l-2.1-6.7c-2.9-8.9-5.6-18-8.7-26.9c-25.9-70.9-67.5-138.2-123.2-192.4
				c-27.8-27.1-58.7-51.2-91.8-71.6c-10.8-6.7-21.9-12.9-33.1-18.7c0,0,0,0,0,0c0,0,0,0,0,0c0.2-0.2,0.3-0.4,0.5-0.6
				c4.1-4.2,8.2-8.6,12.2-12.9c16.6-16.9,34.7-32.2,54.1-45.3c19.4-13,40.1-23.8,61.7-32.4c21.6-8.6,44.2-15.3,67.5-18.9
				c23.3-3.7,47.1-5.2,71-4c23.9,1.1,47.8,4.5,71.3,10.6c23.5,5.9,46.4,14.6,68.1,25.6c21.8,10.8,42.6,24.1,61.7,39.5
				c14.6,11.5,28,24.4,40.3,38.5c4.1,4.6,8,9.3,11.8,14.2c9.3,11.7,17.9,24.1,25.7,37.1c3.4-1,6.9-2,10.3-3
				c53.2-15.2,107.8-27.4,162.3-36.3c-7-19.2-15.1-38.1-24.3-56.6c-24.6-49.3-57.1-95.4-97-134.7c-27.6-27.3-58.4-51.6-91.4-72.2
				c-16.5-10.4-33.8-19.5-51.3-28.1c-8.9-4-17.8-8.1-26.8-12c-9.1-3.5-18.3-7-27.5-10.4c-37.1-12.6-75.6-21.5-114.7-25.9
				c-39.2-4.3-79-4.5-118.6-0.1c-39.5,4.5-78.7,13.7-116.4,27.1c-37.7,13.6-73.9,31.3-107.7,52.7c-33.5,21.9-64.4,47.3-92.4,75.3
				c-6.9,7.1-13.7,14.3-20.4,21.6l-19.1,23c-1.6,1.9-3.2,3.8-4.7,5.8l-4.4,6.1l-8.8,12.1c-2.9,4.1-5.9,8.1-8.6,12.3l-8,12.7
				l-7.9,12.7c-1.3,2.1-2.6,4.3-3.7,6.6l-0.5,0.9l0,0c-23.6-0.5-47.2,0.7-70.8,3.4c-39.5,4.8-78.6,14.1-116.3,27.8
				c-37.6,13.8-73.7,31.7-107.4,53.4c-33.3,22.1-64,47.7-91.8,75.8c-6.8,7.2-13.7,14.4-20.3,21.7L182,504.9
				c-1.5,1.9-3.2,3.8-4.6,5.8l-4.4,6.1l-8.7,12.2c-2.8,4.1-5.9,8.1-8.5,12.3l-7.9,12.8L140,567c-1.3,2.1-2.5,4.3-3.6,6.6l-3.5,6.7
				l-6.9,13.4l-3.4,6.7c-1.1,2.2-2,4.6-3.1,6.8c-4,9.2-8.1,18.4-12,27.6c-3.4,9.4-6.9,18.8-10.2,28.3
				C85,701.2,76.8,740.5,73.5,780.2c-3.4,39.6-2.4,79.5,3.2,118.5c5.5,39.1,15.7,77.2,29.6,113.8c14,36.5,32,71.4,53.6,103.8
				c21.5,32.4,46.9,62.1,75.1,88.5c28.2,26.4,59.2,49.5,92,68.9c32.9,19.4,67.9,34.4,103.4,45.9l13.4,4.2l6.7,2
				c2.1,0.6,3.9,1.1,5.9,1.6l23,6.1l20.3,5.5c-11.2,33.6-20.9,67.7-29.4,102c-1.5,5.5-2.6,11-3.8,16.6l-3.6,16.6
				c-2.3,11.1-4.9,22.1-7,33.2l-5.7,33.4c-1.8,11.2-4,22.2-5.2,33.5l-4.2,33.6c-0.7,5.6-1.4,11.2-2,16.8l-1.6,16.8
				c-1.9,22.5-3.4,45-4.2,67.5c-3.3,90.2,2.6,180.6,17.6,269.3l4.5,25.5c0.8,5,1.3,10,1.4,15c0.4,10-0.6,20.1-2.6,29.9
				c-1.1,4.9-2.4,9.7-4,14.5l-1.3,3.6l-1.4,3.5l-0.2,0.5c0,0.1-0.1,0.3-0.3,0.7l-0.8,1.7l-1.6,3.5l-3.1,6.9l-24.9,55.6l-99.7,222.2
				l-99.7,222.3l-31.2,69.4l-3.1,6.9l-1.6,3.5l-0.8,1.7l-0.9,2.1c-1.3,3-2.6,6-3.7,9c-4.5,12.2-7.1,26.1-7.3,39.8
				c-0.2,13.8,2,27.5,6.2,40.2c8.5,25.5,25.1,47.2,47.5,62.3c11.2,7.5,23.9,13.3,37.2,16.7c6.7,1.7,13.3,2.8,20,3.4
				c3.4,0.3,6.6,0.5,9.9,0.4c3.2,0,6.5-0.1,9.7-0.3c2.8-0.2,1.3-0.1,2.2-0.2l0.9-0.1l1.9-0.2l3.8-0.5l363.2-39.9l121-13.4l60.5-6.7
				l15.1-1.6c3-0.2,6.1-0.7,9.2-0.8c6.1-0.5,12.3-0.3,18.4,0c24.5,1.6,48.7,9.4,69.4,22.7c1.3,0.9,2.5,1.8,3.8,2.6l1.9,1.3l0.5,0.3
				l0.8,0.6l1.7,1.2l13.2,9.7c8.9,6.4,17.8,12.7,26.9,18.8c18,12.4,36.5,24.1,55.1,35.6c74.6,45.5,153.8,83.2,235.6,112.6
				c42.7,15.2,90.5-5.7,107.8-48.1C1429.9,2888.9,1409,2839.1,1365.3,2821.2z M283.2,2620.2l-0.9,0.1c0,0-1.8,0.2,0.3-0.1
				c0.9-0.1,1.7-0.1,2.5-0.1L283.2,2620.2z"/>
			<path class="st0" d="M3071.1,1706.4l-2.6-50.1c-0.3-4.2-0.3-8.4-0.8-12.5l-3.8-37.5c-0.9-8.3-1.6-16.6-2.7-25l-3.7-24.9
				c-2.6-16.5-4.6-33.2-8.2-49.6c-3.3-16.4-6.4-32.9-10-49.3l-12.1-48.9c-17.6-64.9-40-128.5-67-190.4l-21.1-46
				c-7.5-15.1-15.4-30-23.2-45.1l-5.9-11.2c-2-3.7-4.2-7.4-6.3-11l-12.7-22l-12.8-21.9l-13.7-21.4c-17.8-28.8-37.7-56.3-57.6-83.8
				l-31.3-40.1c-5.1-6.7-10.9-13-16.3-19.6l-16.6-19.3c-44.9-51.1-93.4-99.1-145.6-143.3c-52.5-43.7-108.2-83.7-166.8-119.5
				l-44.4-26.1l-45.6-24l-11.4-6l-11.7-5.4l-23.4-10.9l-23.4-10.8l-23.9-9.8l-23.9-9.7l-12-4.9c-4-1.5-8.1-2.9-12.1-4.4l-48.8-17.1
				c-16.4-5.2-33-10-49.5-14.9c-16.5-5.1-33.2-9.3-49.9-13.5c-105.2-25.8-214.2-39-323.5-39h0c-23.5,0-47,0.6-70.4,1.8
				c-6.4,0-12.8,0.4-19.3,1.1l-1.8,0.1c-3.2,0.2-6.3,0.5-9.5,0.9c-3.4,0.4-6.7,1-9.9,1.6c-12.3,1.6-24.7,3.4-37,5.4
				c-55.2,8.7-109.8,20.8-163.3,36c-16.6,4.7-33.1,9.7-49.5,15.1c-11.1,3.3-21.9,7.5-32.8,11.3l-32.5,11.8l-32.1,13.1
				c-9.2,3.7-18.3,7.4-27.3,11.5l106.8,308l396.1,1142.1l273.5,788.5c-26.7,0.5-54.7,2.8-83.7,6.7c-157.6,17.3-279,74.4-269.4,184.6
				c8.1,95.3,114.5,158.5,249,158.5c20.1,0,40.8-1.4,61.9-4.3c87.2-9.2,161.8-41.9,209.6-86.8c45.3-42.6,62.8-107.2,46.7-167.3
				l-60.3-224.1L1676.6,790.9l-8.2-30.4c0.1,0,0.2,0,0.3,0l0.7-0.1c0.1,0,0.2,0,0.3,0c2.2-0.2,4.3-0.4,6.5-0.6
				c2.5-0.3,5-0.7,7.5-1.1c37.5-4.2,75.2-6.2,113-6.2c61.9,0,124.1,5.6,185.7,16.9c13,2.4,26.1,4.9,38.9,8.1
				c12.9,3.1,25.8,5.9,38.7,9.1l38.2,10.9c3.2,0.9,6.4,1.8,9.6,2.8l9.4,3.2l18.8,6.4l18.9,6.3l18.5,7.4l18.6,7.3l9.3,3.6l9.1,4.1
				l36.4,16.4l35.6,18.2c189,98.9,347,260.3,446.5,454.1c24.6,48.6,45.8,99,63.3,150.8l12.2,39.2c3.7,13.2,6.9,26.5,10.5,39.7
				c3.8,13.2,6.1,26.7,9.1,40.1l4.3,20.2c1.3,6.7,2.2,13.5,3.4,20.3l3.3,20.3l1.7,10.2c0.6,3.4,0.8,6.8,1.2,10.2l4.6,41
				c1.8,27.5,4.1,55,3.9,82.6l0.3,20.7c0.1,3.4,0,6.9-0.2,10.4l-0.4,10.4l-0.7,20.7l-0.3,10.4l-0.2,5.2l-0.4,5.2l-3.5,41.5
				c-0.4,6.9-1.5,13.8-2.4,20.7l-2.8,20.7c-15.1,110.2-47.5,218.2-95.8,319.4c-48.2,101.2-112.4,195.3-189.7,278.1l-0.5,0.5
				c-30.5,32.8-30.6,84.1,0.7,117c16.8,17.6,39.3,26.5,61.9,26.5c21.1,0,42.3-7.8,58.8-23.6c94.6-90,175.8-195,239.4-310.4
				c63.6-115.4,109.7-241.2,135.4-371.2l4.7-24.4c1.6-8.1,3.3-16.3,4.3-24.5l7.1-49.3l0.9-6.2l0.6-6.2l1.2-12.4l2.3-24.9l1.1-12.4
				c0.4-4.2,0.8-8.3,0.9-12.5l1.1-25C3072.1,1773.2,3071.5,1739.8,3071.1,1706.4z"/>
		</g>
		<circle class="st0" cx="2195.8" cy="1242.6" r="275"/>
	</g>
</g>
</svg>
