<?xml version="1.0" encoding="utf-8"?>
<!-- Generator: Adobe Illustrator 24.1.2, SVG Export Plug-In . SVG Version: 6.00 Build 0)  -->
<svg version="1.1" xmlns="http://www.w3.org/2000/svg" xmlns:xlink="http://www.w3.org/1999/xlink" x="0px" y="0px"
	 viewBox="0 0 3143 3143" style="enable-background:new 0 0 3143 3143;" xml:space="preserve">
<g id="Grilla">
</g>
<g id="Capa_1">
	<path d="M2774.5,1960c0,593.5-481.2,1074.7-1074.7,1074.7c-181.8,0-353.1-45.1-503.2-124.8l0,0.4c-34.8-18.3-68.6-38.5-101.2-60.4
		c-15.5-10.6-30.8-21.3-45.8-32.6c-7.5-5.6-14.9-11.4-22.3-17.1l-11-8.8l-3.2-2.5l-4.2-3.2c-2.8-2.1-5.6-4.3-8.5-6.4
		c-46-33.1-100.5-53.9-156.7-60.5c-14.1-1.5-28.2-2.5-42.4-2.2c-7.1-0.1-14.2,0.4-21.2,0.8l-15.3,1l-60.7,4l-121.5,8l-198.3,13.1
		l73.8-146.8l109.3-217.7l27.3-54.4l5.1-10.2l0.9-1.7l1.1-2.3l4.8-10.4c1.6-3.5,3-7,4.5-10.5c5.8-14.1,10.8-28.6,14.8-43.3
		c8-29.5,12.6-59.9,13.2-90.5c0.2-7.1,0.1-14.1-0.1-21.2c-9.3-56.8-14.1-115.1-14.1-174.5c0-593.5,481.2-1074.7,1074.7-1074.7
		S2774.5,1366.5,2774.5,1960z"/>
</g>
</svg>
