<?xml version="1.0" encoding="utf-8"?>
<!-- Generator: Adobe Illustrator 24.1.2, SVG Export Plug-In . SVG Version: 6.00 Build 0)  -->
<svg version="1.1" id="Capa_1" xmlns="http://www.w3.org/2000/svg" xmlns:xlink="http://www.w3.org/1999/xlink" x="0px" y="0px"
	 viewBox="0 0 1020 258" style="enable-background:new 0 0 1020 258;" xml:space="preserve">
<g>
	<g>
		<path d="M251,250.4H16c-6.1,0-11-4.9-11-11s4.9-11,11-11h235c6.1,0,11,4.9,11,11S257.1,250.4,251,250.4z"/>
	</g>
</g>
<g>
	<g>
		<g>
			<circle cx="453" cy="139.1" r="11"/>
		</g>
	</g>
	<g>
		<g>
			<circle cx="421" cy="139" r="11"/>
		</g>
	</g>
	<g>
		<g>
			<circle cx="389" cy="139" r="11"/>
		</g>
	</g>
	<g>
		<g>
			<circle cx="357" cy="139" r="11"/>
		</g>
	</g>
	<g>
		<g>
			<circle cx="325" cy="139" r="11"/>
		</g>
	</g>
	<g>
		<g>
			<circle cx="485" cy="139" r="11"/>
		</g>
	</g>
	<g>
		<g>
			<path d="M513,166c-2.8,0-5.6-1.1-7.8-3.2c-4.3-4.3-4.3-11.3,0-15.6l8.2-8.2l-8.2-8.2c-4.3-4.3-4.3-11.3,0-15.6
				c4.3-4.3,11.3-4.3,15.6,0l16,16c4.3,4.3,4.3,11.3,0,15.6l-16,16C518.6,164.9,515.8,166,513,166z"/>
		</g>
	</g>
</g>
<g>
	<path d="M827.4,239.5h-97.1c-10.9,0-19.8-8.9-19.8-19.8V61.8c0-10.9,8.9-19.8,19.8-19.8h97.1c10.9,0,19.8,8.9,19.8,19.8v157.9
		C847.2,230.6,838.4,239.5,827.4,239.5z"/>
</g>
<g>
	<path d="M230.9,198.4H36.1c-10.9,0-19.8-8.9-19.8-19.8V61.4c0-10.9,8.9-19.8,19.8-19.8h194.7c10.9,0,19.8,8.9,19.8,19.8v117.2
		C250.6,189.5,241.8,198.4,230.9,198.4z"/>
</g>
<g>
	<path d="M650.8,239.5h-41.6c-10.9,0-19.8-8.9-19.8-19.8v-97.9c0-10.9,8.9-19.8,19.8-19.8h41.6c10.9,0,19.8,8.9,19.8,19.8v97.9
		C670.5,230.6,661.7,239.5,650.8,239.5z"/>
</g>
<g>
	<path d="M959.1,239.5H907c-10.9,0-19.8-8.9-19.8-19.8V86.8c0-10.9,8.9-19.8,19.8-19.8h52.1c10.9,0,19.8,8.9,19.8,19.8v132.9
		C978.9,230.6,970,239.5,959.1,239.5z"/>
</g>
</svg>
