<?xml version="1.0" encoding="utf-8"?>
<!-- Generator: Adobe Illustrator 24.1.2, SVG Export Plug-In . SVG Version: 6.00 Build 0)  -->
<svg version="1.1" id="Capa_1" xmlns="http://www.w3.org/2000/svg" xmlns:xlink="http://www.w3.org/1999/xlink" x="0px" y="0px"
	 viewBox="0 0 1020 258" style="enable-background:new 0 0 1020 258;" xml:space="preserve">
<style type="text/css">
	.st0{fill:#1A1A1A;}
</style>
<g>
	<g>
		<path class="st0" d="M250.9,189.4H56.1c-17,0-30.8-13.8-30.8-30.8V41.4c0-17,13.8-30.8,30.8-30.8h194.7c17,0,30.8,13.8,30.8,30.8
			v117.2C281.6,175.6,267.8,189.4,250.9,189.4z M56.1,32.6c-4.8,0-8.8,3.9-8.8,8.8v117.2c0,4.8,3.9,8.8,8.8,8.8h194.7
			c4.8,0,8.8-3.9,8.8-8.8V41.4c0-4.8-3.9-8.8-8.8-8.8H56.1z"/>
	</g>
	<g>
		<path class="st0" d="M271,230.4H36c-6.1,0-11-4.9-11-11s4.9-11,11-11h235c6.1,0,11,4.9,11,11S277.1,230.4,271,230.4z"/>
	</g>
</g>
<g>
	<g>
		<g>
			<path class="st0" d="M670.8,230.5h-41.6c-17,0-30.8-13.8-30.8-30.8v-97.9c0-17,13.8-30.8,30.8-30.8h41.6
				c17,0,30.8,13.8,30.8,30.8v97.9C701.5,216.7,687.7,230.5,670.8,230.5z M629.1,93c-4.8,0-8.8,3.9-8.8,8.8v97.9
				c0,4.8,3.9,8.8,8.8,8.8h41.6c4.8,0,8.8-3.9,8.8-8.8v-97.9c0-4.8-3.9-8.8-8.8-8.8H629.1z"/>
		</g>
		<g>
			<circle class="st0" cx="661" cy="113" r="11"/>
		</g>
	</g>
	<g>
		<g>
			<path class="st0" d="M979.1,230.5H927c-17,0-30.8-13.8-30.8-30.8V66.8c0-17,13.8-30.8,30.8-30.8h52.1c17,0,30.8,13.8,30.8,30.8
				v132.9C1009.9,216.7,996.1,230.5,979.1,230.5z M927,58c-4.8,0-8.8,3.9-8.8,8.8v132.9c0,4.8,3.9,8.8,8.8,8.8h52.1
				c4.8,0,8.8-3.9,8.8-8.8V66.8c0-4.8-3.9-8.8-8.8-8.8H927z"/>
		</g>
		<g>
			<circle class="st0" cx="952.9" cy="79" r="11"/>
		</g>
	</g>
	<g>
		<g>
			<path class="st0" d="M847.4,230.5h-97.1c-17,0-30.8-13.8-30.8-30.8V41.8c0-17,13.8-30.8,30.8-30.8h97.1c17,0,30.8,13.8,30.8,30.8
				v157.9C878.2,216.7,864.4,230.5,847.4,230.5z M750.3,33c-4.8,0-8.8,3.9-8.8,8.8v157.9c0,4.8,3.9,8.8,8.8,8.8h97.1
				c4.8,0,8.8-3.9,8.8-8.8V41.8c0-4.8-3.9-8.8-8.8-8.8H750.3z"/>
		</g>
		<g>
			<path class="st0" d="M250.9,189.4H56.1c-17,0-30.8-13.8-30.8-30.8V41.4c0-17,13.8-30.8,30.8-30.8h194.7c17,0,30.8,13.8,30.8,30.8
				v117.2C281.6,175.6,267.8,189.4,250.9,189.4z M56.1,32.6c-4.8,0-8.8,3.9-8.8,8.8v117.2c0,4.8,3.9,8.8,8.8,8.8h194.7
				c4.8,0,8.8-3.9,8.8-8.8V41.4c0-4.8-3.9-8.8-8.8-8.8H56.1z"/>
		</g>
		<g>
			<path class="st0" d="M670.8,230.5h-41.6c-17,0-30.8-13.8-30.8-30.8v-97.9c0-17,13.8-30.8,30.8-30.8h41.6
				c17,0,30.8,13.8,30.8,30.8v97.9C701.5,216.7,687.7,230.5,670.8,230.5z M629.1,93c-4.8,0-8.8,3.9-8.8,8.8v97.9
				c0,4.8,3.9,8.8,8.8,8.8h41.6c4.8,0,8.8-3.9,8.8-8.8v-97.9c0-4.8-3.9-8.8-8.8-8.8H629.1z"/>
		</g>
		<g>
			<path class="st0" d="M979.1,230.5H927c-17,0-30.8-13.8-30.8-30.8V66.8c0-17,13.8-30.8,30.8-30.8h52.1c17,0,30.8,13.8,30.8,30.8
				v132.9C1009.9,216.7,996.1,230.5,979.1,230.5z M927,58c-4.8,0-8.8,3.9-8.8,8.8v132.9c0,4.8,3.9,8.8,8.8,8.8h52.1
				c4.8,0,8.8-3.9,8.8-8.8V66.8c0-4.8-3.9-8.8-8.8-8.8H927z"/>
		</g>
		<g>
			<circle class="st0" cx="799.2" cy="52" r="11"/>
		</g>
	</g>
</g>
<g>
	<g>
		<circle class="st0" cx="473" cy="119.1" r="11"/>
	</g>
	<g>
		<circle class="st0" cx="441" cy="119" r="11"/>
	</g>
	<g>
		<circle class="st0" cx="409" cy="119" r="11"/>
	</g>
	<g>
		<circle class="st0" cx="377" cy="119" r="11"/>
	</g>
	<g>
		<circle class="st0" cx="345" cy="119" r="11"/>
	</g>
	<g>
		<circle class="st0" cx="505" cy="119" r="11"/>
	</g>
	<g>
		<path class="st0" d="M533,146c-2.8,0-5.6-1.1-7.8-3.2c-4.3-4.3-4.3-11.3,0-15.6l8.2-8.2l-8.2-8.2c-4.3-4.3-4.3-11.3,0-15.6
			c4.3-4.3,11.3-4.3,15.6,0l16,16c4.3,4.3,4.3,11.3,0,15.6l-16,16C538.6,144.9,535.8,146,533,146z"/>
	</g>
</g>
</svg>
