<?xml version="1.0" encoding="utf-8"?>
<!-- Generator: Adobe Illustrator 24.1.2, SVG Export Plug-In . SVG Version: 6.00 Build 0)  -->
<svg version="1.1" id="Capa_1" xmlns="http://www.w3.org/2000/svg" xmlns:xlink="http://www.w3.org/1999/xlink" x="0px" y="0px"
	 viewBox="0 0 140.9 140.9" style="enable-background:new 0 0 140.9 140.9;" xml:space="preserve">
<style type="text/css">
	.st0{clip-path:url(#SVGID_2_);fill:#FFFFFF;stroke:#FFFFFF;stroke-width:12;stroke-miterlimit:10;}
</style>
<g>
	<defs>
		<path id="SVGID_1_" d="M90.9,70.5c0,11.3-9.2,20.4-20.4,20.4c-11.3,0-20.4-9.2-20.4-20.4c0-11.3,9.2-20.4,20.4-20.4
			C81.7,50.1,90.9,59.2,90.9,70.5z M140.9,0v139.7H1.2V0H140.9z M102.9,70.5c0-17.9-14.5-32.4-32.4-32.4
			c-17.9,0-32.4,14.5-32.4,32.4c0,17.9,14.5,32.4,32.4,32.4C88.3,102.9,102.9,88.3,102.9,70.5z M111.2,37.1c0-4.1-3.3-7.4-7.4-7.4
			s-7.4,3.3-7.4,7.4c0,4.1,3.3,7.4,7.4,7.4S111.2,41.1,111.2,37.1z"/>
	</defs>
	<clipPath id="SVGID_2_">
		<use xlink:href="#SVGID_1_"  style="overflow:visible;"/>
	</clipPath>
	<path class="st0" d="M101.6,127.1H39.4c-14.5,0-26.3-11.8-26.3-26.3V40.1c0-14.5,11.8-26.3,26.3-26.3h62.2
		c14.5,0,26.3,11.8,26.3,26.3v60.6C127.8,115.3,116.1,127.1,101.6,127.1z"/>
</g>
</svg>
