<?xml version="1.0" encoding="utf-8"?>
<!-- Generator: Adobe Illustrator 24.1.2, SVG Export Plug-In . SVG Version: 6.00 Build 0)  -->
<svg version="1.1" id="Capa_1" xmlns="http://www.w3.org/2000/svg" xmlns:xlink="http://www.w3.org/1999/xlink" x="0px" y="0px"
	 viewBox="0 0 140.9 140.9" style="enable-background:new 0 0 140.9 140.9;" xml:space="preserve">
<style type="text/css">
	.st0{fill:#FFFFFF;stroke:#FFFFFF;stroke-width:12;stroke-linecap:round;stroke-linejoin:round;stroke-miterlimit:10;}
</style>
<g>
	<g>
		<path class="st0" d="M47.8,100c-0.2,0.2-0.3,0.3-0.4,0.3c-1.5,1.3-3,2.4-4.6,3.5c-6,4-12.6,6.4-19.6,7.2c-3.1,0.3-6.1,0.3-9.2,0
			c-0.3,0-0.6-0.2-0.9,0l0,0c0.2,0,0.3,0.2,0.5,0.3c3.3,2.3,6.8,4.3,10.5,6c6.8,3.1,14,4.9,21.3,5.3c3.6,0.2,7.3,0.1,10.9-0.3
			c3.3-0.4,6.6-1,9.9-1.9c12.4-3.5,23-10.5,31.7-21.1c7.3-8.9,12.4-19.3,15.4-30.9c1.3-5.1,2.2-10.3,2.5-15.6
			c0.2-2.7,0.2-5.4,0.1-8.1c0-0.4,0.1-0.7,0.4-0.9l11.5-18.5l-17.8,1c-0.3,0.1-0.5,0-0.7-0.2c-4-4.6-8.9-7.2-14.6-7.9
			c-2.4-0.3-4.9-0.1-7.3,0.5c-5.2,1.3-9.6,4.3-13,8.9C70.8,32.5,69,38,68.9,44.2c0,2,0.1,3.9,0.5,5.9c0.1,0.5,0.1,0.5-0.3,0.5
			c-1.7-0.1-3.5-0.3-5.2-0.6c-3.2-0.5-6.3-1.2-9.4-2.2c-8.8-2.8-16.8-7.5-23.9-14c-3.4-3.1-6.5-6.5-9.2-10.3
			c-0.1-0.2-0.2-0.4-0.4-0.5c-2.2,6.1-6,18.9-2.8,34.6C23.3,83.8,43.6,97.3,47.8,100z"/>
	</g>
</g>
</svg>
