<?xml version="1.0" encoding="utf-8"?>
<!-- Generator: Adobe Illustrator 24.1.2, SVG Export Plug-In . SVG Version: 6.00 Build 0)  -->
<svg version="1.1" id="Capa_1" xmlns="http://www.w3.org/2000/svg" xmlns:xlink="http://www.w3.org/1999/xlink" x="0px" y="0px"
	 viewBox="0 0 258 258.5" style="enable-background:new 0 0 258 258.5;" xml:space="preserve">
<g>
	<path d="M95.1,177.9c-1.8-3.9-5.7-6.4-10-6.4H72.5v-112c0-6.1-4.9-11-11-11s-11,4.9-11,11v112H38c-4.3,0-8.2,2.5-10,6.4
		c-1.8,3.9-1.1,8.5,1.7,11.8l23.5,27c0.1,0.1,0.1,0.1,0.2,0.2c0.2,0.2,0.3,0.3,0.5,0.5c0.1,0.1,0.2,0.2,0.3,0.3
		c0.2,0.1,0.3,0.3,0.5,0.4c0.1,0.1,0.2,0.2,0.4,0.3c0.2,0.1,0.4,0.3,0.6,0.4c0.1,0.1,0.2,0.1,0.3,0.2c0.2,0.1,0.4,0.2,0.7,0.4
		c0.1,0.1,0.2,0.1,0.3,0.2c0.3,0.1,0.5,0.2,0.8,0.3c0.1,0,0.2,0.1,0.3,0.1c0.3,0.1,0.6,0.2,0.9,0.2c0.1,0,0.2,0,0.2,0.1
		c0.3,0.1,0.6,0.1,0.9,0.2c0.1,0,0.1,0,0.2,0c0.4,0,0.8,0.1,1.2,0.1s0.8,0,1.2-0.1c0.1,0,0.1,0,0.2,0c0.3,0,0.6-0.1,0.9-0.2
		c0.1,0,0.2,0,0.2-0.1c0.3-0.1,0.6-0.1,0.9-0.2c0.1,0,0.2-0.1,0.3-0.1c0.3-0.1,0.5-0.2,0.8-0.3c0.1,0,0.2-0.1,0.3-0.2
		c0.2-0.1,0.5-0.2,0.7-0.4c0.1-0.1,0.2-0.1,0.3-0.2c0.2-0.1,0.4-0.3,0.6-0.4c0.1-0.1,0.2-0.2,0.4-0.3c0.2-0.1,0.3-0.3,0.5-0.4
		c0.1-0.1,0.2-0.2,0.3-0.3c0.2-0.2,0.3-0.3,0.5-0.5c0.1-0.1,0.1-0.1,0.2-0.2l23.5-27C96.2,186.5,96.8,181.9,95.1,177.9z"/>
	<path d="M94.5,70.5h67c6.1,0,11-4.9,11-11s-4.9-11-11-11h-67c-6.1,0-11,4.9-11,11S88.4,70.5,94.5,70.5z"/>
	<path d="M94.5,108h77c6.1,0,11-4.9,11-11s-4.9-11-11-11h-77c-6.1,0-11,4.9-11,11S88.4,108,94.5,108z"/>
	<path d="M94.5,145.5h87c6.1,0,11-4.9,11-11s-4.9-11-11-11h-87c-6.1,0-11,4.9-11,11S88.4,145.5,94.5,145.5z"/>
	<path d="M114.5,161c-6.1,0-11,4.9-11,11s4.9,11,11,11h77c6.1,0,11-4.9,11-11s-4.9-11-11-11H114.5z"/>
	<path d="M201.5,198.5h-97c-6.1,0-11,4.9-11,11s4.9,11,11,11h97c6.1,0,11-4.9,11-11S207.6,198.5,201.5,198.5z"/>
</g>
</svg>
