<?xml version="1.0" encoding="utf-8"?>
<!-- Generator: Adobe Illustrator 24.1.2, SVG Export Plug-In . SVG Version: 6.00 Build 0)  -->
<svg version="1.1" id="Capa_1" xmlns="http://www.w3.org/2000/svg" xmlns:xlink="http://www.w3.org/1999/xlink" x="0px" y="0px"
	 viewBox="0 0 258 258.5" style="enable-background:new 0 0 258 258.5;" xml:space="preserve">
<style type="text/css">
	.st0{fill:#1A1A1A;}
</style>
<g>
	<g>
		<path class="st0" d="M87.5,229.5c-1.9,0-3.8-0.1-5.8-0.3c-19.6-2.3-35.7-16.1-41-35.2c-1.6-5.6,0.5-11.6,5.2-15.1
			c4.7-3.5,11-3.8,16-0.8c0.2,0.1,0.4,0.2,0.7,0.2c1,0.2,1.9-0.4,2-1.3c0-0.1,0-0.2,0-0.3l0,0c-0.1-0.3-0.1-0.6-0.1-0.9
			c-0.3-3.1-0.2-6.3,0.4-9.5c1.6-9,6.6-16.9,14.1-22.2c7.5-5.3,16.6-7.3,25.6-5.7c6.2,1.1,11.9,3.9,16.6,8c0,0,0.1,0.1,0.1,0.1
			c0.2,0.2,0.4,0.3,0.5,0.5c2.1,2.1,3.9,4.4,5.6,6.8c7.6,11.1,10.2,25.1,7.1,38.3l0,0C129.3,214.3,109.7,229.5,87.5,229.5z
			 M68.7,199.6c4.1,4.2,9.6,6.9,15.7,7.7c13.1,1.6,25.7-7.3,28.7-20.1l0,0c1.7-7.3,0.3-14.8-3.9-20.9c-0.9-1.3-1.8-2.5-2.9-3.6
			c-1.6-1.4-3.6-2.3-5.6-2.6c-3.2-0.6-6.4,0.2-9.1,2c-2.7,1.9-4.5,4.8-5.1,8.1c-0.2,1-0.2,2.1-0.2,3.1c0.1,0.7,0.2,1.3,0.2,1.8
			c0,0,0,0.1,0,0.1c0.1,1.9,0,3.8-0.3,5.7C84.6,190.3,77.5,197.4,68.7,199.6z M64.7,176.8C64.7,176.8,64.7,176.9,64.7,176.8
			C64.7,176.9,64.7,176.8,64.7,176.8z"/>
	</g>
	<g>
		<path class="st0" d="M124.6,187c-2.5,0-5.1-0.9-7.1-2.6c-4.6-3.9-5.2-10.9-1.2-15.5l93.6-109.5c0.7-0.8,0.8-1.7,0.7-2.3
			s-0.3-1.4-1.1-2.1l-9.9-8c-0.8-0.7-1.7-0.7-2.3-0.7c-0.6,0.1-1.4,0.3-2.1,1.2l-81.8,108.3c-3.7,4.8-10.6,5.8-15.4,2.2
			s-5.8-10.6-2.2-15.4l81.8-108.3c4.1-5.5,10.1-8.9,16.9-9.8c6.8-0.8,13.4,1.1,18.8,5.3l9.9,8c5.3,4.3,8.6,10.4,9.2,17.2
			c0.6,6.8-1.5,13.4-5.9,18.6l-93.6,109.5C130.8,185.7,127.7,187,124.6,187z"/>
	</g>
</g>
</svg>
