<?xml version="1.0" encoding="utf-8"?>
<!-- Generator: Adobe Illustrator 24.1.2, SVG Export Plug-In . SVG Version: 6.00 Build 0)  -->
<svg version="1.1" id="Capa_1" xmlns="http://www.w3.org/2000/svg" xmlns:xlink="http://www.w3.org/1999/xlink" x="0px" y="0px"
	 viewBox="0 0 258 258" style="enable-background:new 0 0 258 258;" xml:space="preserve">
<path d="M204.1,35.1c-2.4-2.1-5.7-3-8.9-2.5l-127,20c-5.3,0.8-9.3,5.5-9.3,10.9v40v67v8.2c-3.7-1.4-7.8-2.2-12-2.2
	c-18.7,0-34,15.3-34,34s15.3,34,34,34c18.7,0,34-15.3,34-34v-40v-57.6l105-16.5v72.1v10.2c-3.7-1.4-7.8-2.2-12-2.2
	c-18.7,0-34,15.3-34,34s15.3,34,34,34c18.7,0,34-15.3,34-34c0-0.4,0-0.9,0-1.3c0-0.2,0-0.4,0-0.7v-40v-85v-40
	C208,40.3,206.6,37.2,204.1,35.1z M47,222.5c-6.6,0-12-5.4-12-12s5.4-12,12-12c6.6,0,12,5.4,12,12S53.6,222.5,47,222.5z M81,90.6
	V72.9l105-16.5v17.7L81,90.6z M174,222.5c-6.6,0-12-5.4-12-12s5.4-12,12-12c6.6,0,12,5.4,12,12S180.6,222.5,174,222.5z"/>
<circle cx="174" cy="210.5" r="27"/>
<circle cx="47" cy="210.5" r="27"/>
<g>
	<path d="M188.6,44.8L76.2,62.5c-3.5,0.6-6.2,3.6-6.2,7.2V95c0,4.5,4,7.9,8.4,7.2l112.4-17.7c3.5-0.6,6.2-3.6,6.2-7.2V52
		C197,47.6,193,44.1,188.6,44.8z"/>
</g>
</svg>
