<?xml version="1.0" encoding="utf-8"?>
<!-- Generator: Adobe Illustrator 24.1.2, SVG Export Plug-In . SVG Version: 6.00 Build 0)  -->
<svg version="1.1" id="Capa_1" xmlns="http://www.w3.org/2000/svg" xmlns:xlink="http://www.w3.org/1999/xlink" x="0px" y="0px"
	 viewBox="0 0 258 258" style="enable-background:new 0 0 258 258;" xml:space="preserve">
<style type="text/css">
	.st0{fill:none;stroke:#1A1A1A;stroke-width:22;stroke-linecap:round;stroke-linejoin:round;stroke-miterlimit:10;}
</style>
<path class="st0" d="M-82.5,91.3"/>
<path d="M226.5,122.2c-3.1-4.9-9.6-6.3-14.4-3.2l-43.3,27.6l-19.7-30.9l43.3-27.6c4.9-3.1,6.3-9.6,3.2-14.4
	c-3.1-4.9-9.6-6.3-14.4-3.2L137.9,98l-10.3-16.2c-3.1-4.9-9.6-6.3-14.4-3.2l-46,29.3c-26.3,16.8-34.1,51.8-17.3,78.1l1,1.6
	l-19.2,12.2c-4.9,3.1-6.3,9.6-3.2,14.4c2,3.1,5.4,4.8,8.8,4.8c1.9,0,3.9-0.5,5.6-1.6L62,205.2l1,1.6c8.1,12.7,20.7,21.6,35.5,24.8
	c4.1,0.9,8.3,1.4,12.4,1.4c10.6,0,21.1-3,30.3-8.9l46-29.3c2.3-1.5,4-3.8,4.6-6.6c0.6-2.7,0.1-5.5-1.4-7.9L180,164.2l43.3-27.6
	C228.2,133.5,229.6,127.1,226.5,122.2z"/>
</svg>
